<svg width="194" height="32" viewBox="0 0 194 32" fill="none" xmlns="http://www.w3.org/2000/svg">
<path d="M69.4742 13.9743H63.0318L62.3488 13.9986C61.4717 13.9986 60.9261 13.6716 60.6351 12.9671C60.5664 12.8036 60.5321 12.624 60.5321 12.4302C60.5321 12.1637 60.5947 11.9094 60.72 11.6652C61.0332 11.1081 61.5324 10.8356 62.2457 10.8356H73.6654C74.2818 10.8356 74.7911 10.662 75.177 10.3208C75.6843 9.88686 75.9409 9.39636 75.9409 8.86145C75.9409 8.37903 75.757 7.92285 75.3912 7.50905C75.0214 7.0892 74.4859 6.849 73.7685 6.79248H62.2962C61.0959 6.79248 59.9501 7.07911 58.877 7.6564C57.1209 8.71814 56.1489 10.232 55.9832 12.188V12.2606C55.9832 14.1903 56.838 15.7668 58.5355 16.9557C59.3256 17.4563 60.2067 17.7954 61.1848 17.9649C61.4192 17.9871 62.5589 18.0134 69.7026 18.0134C69.9532 18.0134 70.1997 18.0558 70.418 18.1305C70.8302 18.302 71.1152 18.5927 71.2809 19.0045C71.3536 19.2063 71.39 19.4001 71.39 19.5818C71.39 19.8401 71.293 20.1449 71.103 20.484C70.8403 20.9322 70.3331 21.1502 69.549 21.1502H58.4627C57.7312 21.1502 57.1391 21.3338 56.7005 21.6951C56.2459 22.0706 56.0034 22.547 55.9832 23.1222C55.9832 23.6269 56.1873 24.0992 56.5914 24.5312C57.0017 24.9692 57.6039 25.1912 58.3879 25.1912H69.2944C69.6642 25.1912 70.0482 25.1831 70.4705 25.165C72.4307 24.9127 73.9645 24.0285 75.0416 22.5167C75.6398 21.5559 75.9429 20.5769 75.9429 19.606C75.9429 18.6876 75.6762 17.753 75.1407 16.8083C73.912 14.9251 72.0063 13.9723 69.4763 13.9723L69.4742 13.9743Z" fill="#031B33"/>
<path d="M149.661 7.1902L149.643 7.17809C148.893 6.73401 148.077 6.67346 147.299 7.01459C146.555 7.33351 146.118 7.90071 146.036 8.65967V15.781C146.034 17.0345 145.678 18.1225 144.977 19.0126C143.982 20.2722 142.697 20.9665 141.064 21.1321L140.591 21.1563C139.142 21.1563 137.853 20.6617 136.768 19.6989C135.695 18.6553 135.155 17.4341 135.123 15.9748V8.91199C135.123 8.15504 134.814 7.17809 133.341 6.82888L132.902 6.79659C132.354 6.79659 131.839 6.95807 131.37 7.27497C130.863 7.61812 130.596 8.11669 130.576 8.76867V15.8759C130.576 17.7268 131.142 19.4829 132.266 21.1099C133.678 22.983 135.602 24.2567 137.997 24.9006C138.876 25.0964 139.749 25.1973 140.593 25.1973C142.214 25.1973 143.805 24.832 145.328 24.1073C147.484 23.0052 149.036 21.3783 149.942 19.2629C150.368 18.2052 150.584 17.1071 150.584 15.999V8.93621C150.584 8.19541 150.273 7.61005 149.663 7.19221L149.661 7.1902Z" fill="#031B33"/>
<path d="M125.314 8.87166C123.814 7.50917 122.014 6.81883 119.963 6.81883C118.677 6.81883 117.457 7.11354 116.337 7.69285C115.794 7.96131 115.293 8.30244 114.846 8.70412L114.797 8.65972C114.616 8.49016 114.405 8.32061 114.163 8.14701C112.825 7.2508 111.316 6.79663 109.675 6.79663C107.407 6.79663 105.485 7.63028 103.962 9.28344C102.864 10.5369 102.299 11.9983 102.282 13.6273V23.0315C102.282 23.2919 102.323 23.5462 102.41 23.8046C102.769 24.715 103.503 25.1954 104.532 25.1954C104.843 25.1954 105.158 25.1409 105.492 25.0238C106.348 24.6524 106.811 24.0004 106.831 23.1284V13.8917C106.831 13.6192 106.848 13.3608 106.874 13.157C107.153 11.964 107.872 11.2273 109.074 10.9043C109.275 10.876 109.477 10.8619 109.675 10.8619C110.618 10.8619 111.38 11.2414 111.997 12.0145C112.379 12.5252 112.571 13.1489 112.571 13.8655V23.2596C112.591 23.8268 112.839 24.2991 113.306 24.6665C113.753 25.0177 114.28 25.1954 114.87 25.1954C115.551 25.1954 116.101 24.9733 116.501 24.5313C116.889 24.1054 117.097 23.6371 117.117 23.1264V13.7686C117.117 12.9995 117.336 12.3677 117.77 11.851C118.393 11.1849 119.092 10.8599 119.91 10.8599C120.207 10.8599 120.508 10.8962 120.773 10.9608C122.176 11.4533 122.857 12.4364 122.857 13.9623V22.9124C122.857 23.5765 123.063 24.1276 123.467 24.5494C123.875 24.9774 124.445 25.1954 125.156 25.1954C125.734 25.1954 126.252 25.0076 126.692 24.6342C127.145 24.2507 127.385 23.7481 127.405 23.1264V13.601C127.405 11.855 126.704 10.2685 125.312 8.86964L125.314 8.87166Z" fill="#031B33"/>
<path d="M96.0704 9.37427L96.0643 9.37023C94.1041 7.66257 91.7701 6.79663 89.1248 6.79663C87.0433 6.79663 85.0851 7.37796 83.2987 8.53053C81.6356 9.65081 80.4332 11.1122 79.7219 12.8824C79.3318 13.9058 79.1338 14.9534 79.1338 15.997C79.1338 16.8266 79.2591 17.6643 79.5097 18.4919C80.0775 20.3065 81.1627 21.8527 82.743 23.0921C84.5961 24.4889 86.7442 25.1954 89.1248 25.1954C90.9759 25.1954 92.7279 24.7452 94.3385 23.8571C96.0704 22.8539 97.388 21.4773 98.259 19.7575C98.8268 18.5524 99.1138 17.2949 99.1138 16.0212C99.1138 13.4436 98.0892 11.2071 96.0684 9.37629L96.0704 9.37427ZM89.1248 21.1543C88.0133 21.1543 86.9605 20.8414 86.0026 20.2339C85.0872 19.6061 84.4183 18.7886 84.0222 17.8116C83.7979 17.2162 83.6847 16.6046 83.6847 15.995C83.6847 14.3539 84.3475 13.0419 85.7096 11.9842C86.7059 11.2212 87.8638 10.8357 89.1511 10.8357C90.1312 10.8357 91.0506 11.0779 91.8852 11.5563C92.8492 12.1094 93.5807 12.8804 94.0617 13.8493C94.3971 14.5316 94.5669 15.2461 94.5669 15.9708C94.5669 17.4624 94.0071 18.6998 92.8552 19.7575C91.7943 20.684 90.5394 21.1523 89.1248 21.1523V21.1543Z" fill="#031B33"/>
<path d="M167.212 13.9743H160.769L160.086 13.9986C159.209 13.9986 158.664 13.6716 158.373 12.9671C158.304 12.8036 158.27 12.6219 158.27 12.4302C158.27 12.1637 158.332 11.9094 158.458 11.6652C158.771 11.1081 159.27 10.8356 159.983 10.8356H171.403C172.019 10.8356 172.529 10.662 172.913 10.3208C173.42 9.88686 173.677 9.39636 173.677 8.86145C173.677 8.37903 173.493 7.92285 173.127 7.50905C172.759 7.0892 172.222 6.849 171.504 6.79248H160.032C158.831 6.79248 157.686 7.07911 156.613 7.6564C154.856 8.71814 153.884 10.232 153.719 12.188V12.2606C153.719 14.1903 154.574 15.7668 156.271 16.9557C157.061 17.4583 157.942 17.7954 158.92 17.9649C159.157 17.9871 160.295 18.0134 167.44 18.0134C167.691 18.0134 167.937 18.0558 168.156 18.1305C168.568 18.302 168.851 18.5927 169.018 19.0045C169.091 19.2063 169.128 19.4001 169.128 19.5818C169.128 19.8401 169.031 20.1449 168.841 20.484C168.58 20.9322 168.071 21.1502 167.287 21.1502H156.2C155.469 21.1502 154.877 21.3338 154.438 21.6951C153.983 22.0706 153.741 22.547 153.721 23.1222C153.721 23.6248 153.925 24.0992 154.329 24.5312C154.739 24.9692 155.344 25.1912 156.124 25.1912H167.03C167.4 25.1912 167.786 25.1831 168.206 25.165C170.166 24.9127 171.7 24.0285 172.777 22.5167C173.375 21.5559 173.679 20.5769 173.679 19.606C173.679 18.6876 173.412 17.753 172.876 16.8083C171.648 14.9251 169.742 13.9723 167.212 13.9723V13.9743Z" fill="#031B33"/>
<path d="M183.288 25.1913C184.622 25.1913 185.704 24.1105 185.704 22.7772C185.704 21.4439 184.622 20.363 183.288 20.363C181.953 20.363 180.871 21.4439 180.871 22.7772C180.871 24.1105 181.953 25.1913 183.288 25.1913Z" fill="#205DF5"/>
<path d="M44.2158 9.04921V18.4777C44.2158 21.4065 42.3405 23.9014 39.7255 24.8219C39.0243 25.0701 38.2685 25.2054 37.4804 25.2054C36.6922 25.2054 35.9364 25.0701 35.2352 24.8219C33.9924 24.3838 32.9133 23.5865 32.1272 22.5591C31.2602 21.4267 30.7449 20.0138 30.7449 18.4777V15.7769C30.7449 13.3002 28.7342 11.2918 26.2546 11.2918C23.7751 11.2918 21.7643 13.3002 21.7643 15.7769V18.4777C21.7643 20.0138 21.249 21.4267 20.3821 22.5591C19.594 23.5865 18.5169 24.3838 17.274 24.8219C16.5728 25.0701 15.817 25.2054 15.0289 25.2054C14.2408 25.2054 13.485 25.0701 12.7837 24.8219C10.1688 23.9014 8.29346 21.4065 8.29346 18.4777V9.04921C8.29346 7.80984 9.29781 6.80664 10.5386 6.80664C11.7794 6.80664 12.7837 7.80984 12.7837 9.04921V18.4777C12.7837 19.717 13.7881 20.7202 15.0289 20.7202C16.2697 20.7202 17.274 19.717 17.274 18.4777V15.7769C17.274 14.584 17.5064 13.4455 17.9328 12.406C18.6826 10.5469 20.0426 9.00076 21.7623 8.01169C23.086 7.24668 24.6157 6.80664 26.2526 6.80664C27.8895 6.80664 29.4193 7.24466 30.7429 8.01169C32.4626 9.00278 33.8247 10.5469 34.5724 12.406C35.0008 13.4435 35.2312 14.5819 35.2312 15.7769V18.4777C35.2312 19.717 36.2355 20.7202 37.4763 20.7202C38.7171 20.7202 39.7215 19.717 39.7215 18.4777V9.04921C39.7215 7.80984 40.7258 6.80664 41.9666 6.80664C43.2074 6.80664 44.2117 7.80984 44.2117 9.04921H44.2158Z" fill="#031B33"/>
<path d="M26.2869 13.2073C24.9451 13.2073 23.8518 14.2973 23.8518 15.6396V23.9377H23.87C26.5456 23.9377 28.722 21.7637 28.722 19.0912V15.6416C28.722 14.3013 27.6308 13.2093 26.2869 13.2093V13.2073Z" fill="#205DF5"/>
</svg>
